<?xml version="1.0" standalone="no"?>
<!DOCTYPE svg PUBLIC "-//W3C//DTD SVG 20010904//EN"
 "http://www.w3.org/TR/2001/REC-SVG-20010904/DTD/svg10.dtd">
<svg version="1.0" xmlns="http://www.w3.org/2000/svg"
 width="626.000000pt" height="626.000000pt" viewBox="0 0 626.000000 626.000000"
 preserveAspectRatio="xMidYMid meet">

<g transform="translate(0.000000,626.000000) scale(0.100000,-0.100000)"
fill="#000000" stroke="none">
<path d="M1802 5279 c-219 -46 -405 -150 -555 -308 -121 -128 -201 -272 -254
-452 l-28 -94 0 -1205 c-1 -663 2 -1126 5 -1030 3 96 7 169 8 163 1 -7 9 -13
17 -13 12 0 15 -15 17 -67 l1 -68 7 65 c4 36 8 54 9 40 l2 -25 11 23 c12 24
52 30 62 10 5 -11 7 -11 12 0 3 6 22 12 41 12 20 0 41 6 47 14 6 8 26 17 44
21 25 5 32 3 32 -9 0 -12 10 -16 35 -16 28 0 38 5 47 25 6 13 15 22 21 18 5
-3 3 -9 -4 -14 -10 -6 -6 -9 13 -9 16 0 33 -9 43 -22 l16 -23 -6 26 c-7 26 -6
27 67 33 41 4 80 11 87 15 9 6 13 171 17 767 3 463 9 782 15 819 55 314 308
575 629 650 97 22 1643 22 1740 0 315 -74 552 -311 625 -625 22 -97 22 -1643
0 -1740 -45 -192 -148 -353 -305 -475 -126 -97 -258 -149 -438 -169 -64 -8
-100 -14 -80 -15 20 0 40 -6 44 -12 4 -7 0 -9 -12 -5 -11 3 -26 1 -34 -4 -12
-8 -10 -10 10 -10 35 0 57 -15 35 -23 -9 -4 -13 -3 -10 3 4 6 -14 9 -47 8 -44
-1 -46 -2 -15 -5 29 -3 51 -16 92 -56 30 -29 55 -55 55 -59 0 -4 14 -21 31
-37 19 -18 28 -35 23 -42 -5 -8 -3 -9 5 -5 8 5 14 1 18 -12 2 -11 16 -25 29
-32 13 -8 24 -17 24 -22 0 -4 14 -21 31 -38 18 -16 26 -30 19 -30 -18 0 17
-33 58 -54 18 -9 32 -21 32 -27 0 -5 10 -20 23 -33 25 -27 56 -73 64 -99 3 -9
19 -21 37 -26 25 -7 11 -10 -69 -12 l-100 -3 80 -4 c506 -22 971 357 1060 867
22 125 22 2477 0 2602 -38 218 -132 396 -295 560 -137 139 -285 224 -478 277
l-97 27 -1260 2 c-1218 2 -1263 1 -1353 -18z"/>
<path d="M2349 4370 c-201 -31 -374 -179 -441 -379 -22 -65 -22 -79 -26 -656
-2 -324 -1 -663 3 -751 l7 -162 102 -1 c55 -1 103 -6 104 -11 2 -6 13 -10 23
-10 11 0 18 4 15 8 -2 4 97 9 221 11 159 2 223 -1 219 -8 -5 -7 5 -11 26 -11
19 0 38 -4 43 -9 6 -4 33 -15 61 -24 27 -9 59 -19 70 -23 15 -5 16 -4 4 5 -8
5 -11 13 -7 17 4 4 16 -1 27 -11 10 -9 26 -15 35 -12 20 8 45 -2 45 -18 0 -8
-8 -11 -20 -8 -11 3 -41 2 -67 -2 -38 -6 -44 -9 -28 -15 18 -7 46 -6 122 5 13
2 25 -1 29 -6 3 -6 12 -8 20 -5 7 3 16 1 19 -4 4 -6 1 -10 -5 -10 -6 0 -8 -5
-5 -10 4 -6 14 -10 23 -9 37 5 93 -14 104 -34 6 -12 18 -28 25 -36 13 -12 16
-12 25 0 8 12 10 12 15 -1 4 -8 19 -27 35 -42 15 -14 28 -31 28 -37 0 -6 10
-11 23 -11 13 0 32 -8 43 -19 11 -10 36 -23 56 -30 33 -11 47 -28 63 -76 4
-14 8 -16 14 -7 4 7 15 10 24 6 19 -7 22 -20 7 -29 -20 -12 19 -35 62 -37 l43
-1 -50 -7 c-27 -4 69 -7 215 -6 246 2 269 4 319 24 161 64 287 201 338 367 17
56 18 113 18 845 0 782 0 785 -22 855 -53 167 -194 311 -362 367 -66 23 -70
23 -826 24 -418 1 -785 -2 -816 -6z m1689 -264 c85 -54 109 -190 48 -271 -74
-96 -221 -98 -299 -5 -25 29 -47 86 -47 120 0 34 22 91 47 121 61 72 169 87
251 35z m-752 -216 c283 -71 509 -297 575 -576 116 -489 -251 -962 -749 -966
-53 -1 -117 2 -142 5 -33 5 -40 4 -25 -3 14 -7 6 -8 -30 -4 -27 4 -63 7 -80 8
-17 1 -29 6 -28 12 1 7 -18 18 -42 25 -28 8 -41 17 -35 23 6 6 14 5 22 -2 18
-14 128 -52 153 -52 11 0 -17 13 -61 29 -45 15 -98 38 -118 50 -19 12 -40 20
-46 16 -6 -4 -9 -1 -8 6 2 6 -3 14 -11 17 -9 3 -11 0 -6 -9 5 -8 4 -11 -1 -6
-5 5 -9 12 -9 16 0 3 -33 37 -73 75 -164 156 -252 355 -252 576 0 366 258 687
615 765 94 21 258 18 351 -5z m-606 -1460 c-8 -5 -24 -9 -35 -9 -16 1 -16 2 5
9 35 11 48 11 30 0z m354 -100 c-7 -7 -19 -7 -35 -1 -23 9 -22 10 11 10 23 1
31 -2 24 -9z"/>
<path d="M3050 3643 c-119 -12 -237 -70 -320 -160 -96 -103 -140 -211 -141
-345 0 -102 7 -140 47 -226 81 -178 261 -293 461 -293 132 -1 232 34 340 119
135 108 207 314 169 492 -47 223 -207 374 -433 409 -39 6 -75 10 -80 9 -4 0
-24 -3 -43 -5z"/>
<path d="M2818 2363 c7 -3 16 -2 19 1 4 3 -2 6 -13 5 -11 0 -14 -3 -6 -6z"/>
<path d="M1893 2375 c0 -22 2 -30 4 -17 2 12 2 30 0 40 -3 9 -5 -1 -4 -23z"/>
<path d="M1613 2340 c0 -25 2 -35 4 -22 2 12 2 32 0 45 -2 12 -4 2 -4 -23z"/>
<path d="M1240 2350 c-8 -5 -11 -12 -7 -16 4 -4 15 0 24 9 18 18 8 23 -17 7z"/>
</g>
</svg>
