<?xml version="1.0" standalone="no"?>
<!DOCTYPE svg PUBLIC "-//W3C//DTD SVG 20010904//EN"
 "http://www.w3.org/TR/2001/REC-SVG-20010904/DTD/svg10.dtd">
<svg version="1.0" xmlns="http://www.w3.org/2000/svg"
 width="512.000000pt" height="512.000000pt" viewBox="0 0 512.000000 512.000000"
 preserveAspectRatio="xMidYMid meet">

<g transform="translate(0.000000,512.000000) scale(0.100000,-0.100000)"
fill="#000000" stroke="none">
<path d="M2365 5114 c-22 -3 -92 -11 -155 -20 -1044 -139 -1909 -931 -2144
-1961 -49 -215 -60 -322 -60 -573 0 -321 28 -500 124 -801 205 -636 676 -1181
1285 -1487 257 -129 498 -204 800 -249 167 -24 523 -24 690 0 696 103 1285
450 1702 1002 255 337 420 737 489 1185 25 161 25 539 0 700 -95 615 -370
1136 -813 1541 -378 345 -833 561 -1348 640 -126 20 -472 33 -570 23z m1134
-1591 c-8 -9 -170 -196 -361 -415 l-347 -397 192 -255 c105 -140 294 -389 418
-553 124 -164 229 -304 233 -310 6 -10 -62 -13 -327 -13 l-334 0 -259 340
c-143 187 -261 339 -264 339 -3 0 -138 -152 -300 -339 l-295 -339 -169 -1
-169 0 20 23 c77 83 753 862 753 866 0 3 -183 244 -405 535 -223 291 -405 530
-405 532 0 2 154 4 343 4 l342 0 234 -310 c128 -170 237 -307 242 -304 5 2
128 142 275 309 l266 305 162 2 c88 2 163 2 165 1 2 -2 -2 -10 -10 -20z"/>
<path d="M1875 3349 c-4 -5 715 -952 1094 -1442 l100 -129 85 0 c47 0 86 3 87
7 0 3 -183 250 -409 548 -225 298 -489 648 -587 777 -98 129 -179 237 -182
240 -6 7 -184 7 -188 -1z"/>
</g>
</svg>
