<?xml version="1.0" standalone="no"?>
<!DOCTYPE svg PUBLIC "-//W3C//DTD SVG 20010904//EN"
 "http://www.w3.org/TR/2001/REC-SVG-20010904/DTD/svg10.dtd">
<svg version="1.0" xmlns="http://www.w3.org/2000/svg"
 width="500.000000pt" height="500.000000pt" viewBox="0 0 500.000000 500.000000"
 preserveAspectRatio="xMidYMid meet">

<g transform="translate(0.000000,500.000000) scale(0.100000,-0.100000)"
fill="#000000" stroke="none">
<path d="M2290 4240 c-240 -30 -489 -116 -701 -245 -130 -79 -197 -131 -322
-254 -254 -249 -412 -543 -494 -921 -15 -69 -18 -128 -18 -315 1 -212 3 -240
28 -358 46 -215 141 -445 250 -607 222 -328 512 -556 876 -690 69 -25 197 -59
279 -74 l32 -5 0 609 0 610 -225 0 -226 0 1 255 1 255 225 0 224 0 0 238 c1
321 22 432 109 566 89 136 217 219 389 252 118 22 396 16 535 -12 l27 -6 0
-219 0 -219 -145 0 c-172 0 -231 -16 -289 -80 -62 -69 -66 -89 -66 -316 l0
-204 240 0 c132 0 240 -3 240 -7 1 -5 -16 -119 -37 -255 l-37 -248 -203 0
-203 0 0 -611 c0 -577 1 -610 18 -605 9 2 44 10 77 16 424 83 864 393 1105
780 209 334 298 709 260 1091 -43 420 -213 783 -505 1075 -248 248 -562 415
-910 484 -125 25 -408 35 -535 20z"/>
</g>
</svg>
