<?xml version="1.0" standalone="no"?>
<!DOCTYPE svg PUBLIC "-//W3C//DTD SVG 20010904//EN"
 "http://www.w3.org/TR/2001/REC-SVG-20010904/DTD/svg10.dtd">
<svg version="1.0" xmlns="http://www.w3.org/2000/svg"
 width="980.000000pt" height="980.000000pt" viewBox="0 0 980.000000 980.000000"
 preserveAspectRatio="xMidYMid meet">

<g transform="translate(0.000000,980.000000) scale(0.100000,-0.100000)"
fill="#000000" stroke="none">
<path d="M260 4900 l0 -4640 4640 0 4640 0 0 4640 0 4640 -4640 0 -4640 0 0
-4640z m4945 2949 c1167 -119 2160 -927 2520 -2048 228 -712 176 -1489 -144
-2166 -133 -279 -286 -504 -513 -754 -75 -83 -130 -134 -293 -276 -130 -113
-399 -284 -590 -376 -420 -201 -815 -291 -1285 -291 -798 -1 -1526 301 -2099
873 -422 421 -712 970 -815 1547 -39 216 -49 322 -48 552 0 325 41 589 138
892 341 1059 1243 1839 2337 2023 264 44 521 52 792 24z"/>
<path d="M4215 6260 c-394 -26 -913 -102 -1130 -165 -191 -55 -256 -300 -113
-431 55 -50 66 -56 126 -70 54 -13 67 -12 257 26 207 41 458 78 675 102 165
17 823 17 975 0 588 -68 1118 -216 1595 -444 106 -51 136 -61 195 -65 116 -9
201 40 256 146 46 90 19 234 -58 302 -38 33 -155 91 -358 176 -546 230 -1060
357 -1665 413 -160 14 -598 20 -755 10z"/>
<path d="M4235 5254 c-22 -2 -103 -9 -180 -14 -264 -21 -775 -113 -880 -159
-136 -60 -162 -240 -49 -340 75 -66 105 -66 404 -2 374 79 673 107 1030 98
588 -16 1097 -150 1677 -441 197 -99 225 -105 314 -58 126 66 146 245 38 336
-36 31 -351 190 -484 245 -471 194 -907 298 -1380 331 -138 9 -394 11 -490 4z"/>
<path d="M4110 4284 c-19 -2 -91 -9 -160 -14 -237 -20 -660 -89 -713 -116 -15
-8 -41 -33 -57 -56 -25 -33 -30 -51 -30 -95 0 -62 17 -100 60 -137 59 -49 87
-51 275 -17 386 69 570 86 915 85 295 -1 431 -13 650 -60 322 -69 597 -180
914 -369 93 -56 98 -57 155 -53 70 5 118 36 146 94 22 47 17 134 -12 172 -69
94 -473 303 -788 407 -216 72 -361 105 -611 141 -103 14 -655 28 -744 18z"/>
</g>
</svg>
