<?xml version="1.0" standalone="no"?>
<!DOCTYPE svg PUBLIC "-//W3C//DTD SVG 20010904//EN"
 "http://www.w3.org/TR/2001/REC-SVG-20010904/DTD/svg10.dtd">
<svg version="1.0" xmlns="http://www.w3.org/2000/svg"
 width="736.000000pt" height="736.000000pt" viewBox="0 0 736.000000 736.000000"
 preserveAspectRatio="xMidYMid meet">

<g transform="translate(0.000000,736.000000) scale(0.100000,-0.100000)"
fill="#000000" stroke="none">
<path d="M0 3680 l0 -3680 3680 0 3680 0 0 3680 0 3680 -3680 0 -3680 0 0
-3680z m3226 1398 c133 -178 327 -439 433 -580 105 -142 193 -258 195 -258 4
0 187 215 775 908 l214 252 218 0 c121 0 219 -3 219 -6 0 -3 -39 -51 -87 -107
-124 -145 -208 -243 -564 -662 -172 -203 -371 -437 -441 -519 -82 -95 -125
-153 -119 -160 8 -11 397 -533 791 -1061 493 -662 680 -915 680 -920 0 -3
-262 -5 -583 -5 l-583 0 -240 322 c-133 178 -341 458 -464 623 -122 165 -226
303 -229 308 -4 4 -101 -104 -217 -240 -115 -136 -292 -345 -394 -464 -102
-119 -248 -291 -325 -382 l-140 -166 -224 0 -223 -1 48 58 c27 31 128 149 224
262 889 1044 1030 1211 1030 1221 0 5 -152 213 -338 462 -185 248 -414 555
-507 680 -94 126 -257 345 -362 487 -106 142 -193 261 -193 264 0 3 262 6 583
6 l583 0 240 -322z"/>
<path d="M2482 5060 c3 -10 857 -1159 1849 -2487 l211 -283 170 0 c105 0 168
4 166 10 -3 10 -857 1159 -1849 2488 l-211 282 -170 0 c-105 0 -168 -4 -166
-10z"/>
</g>
</svg>
