<?xml version="1.0" encoding="UTF-8"?>
<svg version="1.1" xmlns="http://www.w3.org/2000/svg" width="736" height="736">
<path d="M0 0 C242.88 0 485.76 0 736 0 C736 242.88 736 485.76 736 736 C493.12 736 250.24 736 0 736 C0 493.12 0 250.24 0 0 Z " fill="#000000" transform="translate(0,0)"/>
<path d="M0 0 C14.9766484 -0.49284943 29.95266527 -0.8619589 44.93572235 -1.08805561 C51.89498027 -1.19588727 58.84917335 -1.34253458 65.80517578 -1.58422852 C72.52970352 -1.81776608 79.2479146 -1.93822878 85.97666931 -1.9924221 C88.53208331 -2.03098654 91.08723579 -2.10631262 93.64039612 -2.22033119 C113.04304164 -3.05169437 113.04304164 -3.05169437 119.5975647 2.00329971 C124.34085059 6.90460872 127.92723634 12.40150121 131.35276794 18.27291298 C134.01376316 22.67834297 137.14078124 26.71798231 140.25 30.8125 C141.40112627 32.37562765 142.54991618 33.94048133 143.6953125 35.5078125 C148.74128815 42.38011909 153.87302271 49.18805226 159 56 C165.97424477 65.26631584 172.90090144 74.56483231 179.77099609 83.90869141 C185.00487377 91.02124806 190.2948521 98.09063039 195.60546875 105.14599609 C198.07401589 108.42788457 200.53678853 111.71410599 203 115 C210.66481443 107.41672615 217.75003244 99.40261468 224.51953125 91.015625 C227.44968076 87.4533015 230.46754063 83.97521153 233.5 80.5 C237.32322284 76.11792637 241.09154523 71.70940127 244.75 67.1875 C248.28191087 62.82417215 251.98706936 58.6616152 255.765625 54.51171875 C258.78690037 51.11542494 261.62575933 47.5840702 264.484375 44.05078125 C267.42925052 40.47943376 270.45720087 36.9878836 273.5 33.5 C277.98422551 28.35695462 282.36503398 23.15057257 286.66015625 17.84765625 C289.56118533 14.31702152 292.52445047 10.84288451 295.5 7.375 C296.29386108 6.44965454 296.29386108 6.44965454 297.10375977 5.50561523 C300.85276745 1.14723255 300.85276745 1.14723255 302 0 C303.38160115 -0.0927833 304.76788038 -0.11747043 306.15258789 -0.11352539 C307.03342545 -0.11344986 307.914263 -0.11337433 308.8217926 -0.11329651 C309.77907761 -0.10813522 310.73636261 -0.10297394 311.72265625 -0.09765625 C313.18547279 -0.09553383 313.18547279 -0.09553383 314.67784119 -0.09336853 C317.80609143 -0.08775133 320.93427123 -0.07519593 324.0625 -0.0625 C326.17773334 -0.05748722 328.29296781 -0.05292393 330.40820312 -0.04882812 C335.60549296 -0.03777631 340.80274145 -0.02102146 346 0 C344.38182825 3.40829937 342.52234036 5.79530758 339.9375 8.5625 C336.76214883 12.02560159 333.70171816 15.53195256 330.75 19.1875 C327.09153866 23.70940939 323.32307284 28.11778899 319.5 32.5 C315.76584832 36.78206292 312.07540896 41.08331835 308.5 45.5 C303.37137869 51.82873745 298.00725329 57.94705834 292.65966797 64.09033203 C286.45127377 71.23391241 280.27176028 78.39645872 274.3125 85.75 C270.75732096 90.13151795 267.03230463 94.31710681 263.234375 98.48828125 C260.21309963 101.88457506 257.37424067 105.4159298 254.515625 108.94921875 C251.57074831 112.52056766 248.54276308 116.01208301 245.5 119.5 C240.20827635 125.57039261 235.04517459 131.72202094 230 138 C229.23816406 138.82242188 228.47632813 139.64484375 227.69140625 140.4921875 C225.78363041 142.83119346 225.78363041 142.83119346 225.953125 145.42578125 C227.33564623 148.82533905 229.41817346 151.40406603 231.75 154.1875 C236.21551301 159.68368688 240.44881365 165.29834692 244.5625 171.0625 C249.04678168 177.32804712 253.63482104 183.47479389 258.36328125 189.55859375 C261.52298597 193.6522611 264.5689225 197.82875808 267.625 202 C272.67663048 208.89085331 277.80665977 215.71535422 283 222.5 C290.45542951 232.24541374 297.74957972 242.10156466 305 252 C307.41446741 255.29328654 309.83099969 258.58504148 312.25 261.875 C312.83507324 262.67075439 313.42014648 263.46650879 314.02294922 264.28637695 C317.3786314 268.83794191 320.78022729 273.34742499 324.25 277.8125 C327.47702521 281.97421374 330.59213049 286.19570377 333.625 290.5 C337.87638272 296.52943631 342.32263173 302.39651066 346.8125 308.25 C352.61838751 315.8191977 358.29895694 323.46161978 363.83911133 331.22753906 C364.33048584 331.91557617 364.82186035 332.60361328 365.328125 333.3125 C365.78380859 333.95058594 366.23949219 334.58867188 366.70898438 335.24609375 C367.87385731 336.82862914 369.11279663 338.3559906 370.359375 339.875 C372 342 372 342 372 344 C357.0233516 344.49284943 342.04733473 344.8619589 327.06427765 345.08805561 C320.10501973 345.19588727 313.15082665 345.34253458 306.19482422 345.58422852 C299.47029648 345.81776608 292.7520854 345.93822878 286.02333069 345.9924221 C283.46791669 346.03098654 280.91276421 346.10631262 278.35960388 346.22033119 C258.95421562 347.05181189 258.95421562 347.05181189 252.40042114 341.99367905 C247.65498066 337.08793744 244.06455513 331.5875293 240.63699341 325.71172142 C238.01855952 321.37421875 234.94023344 317.40212532 231.875 313.375 C230.73012216 311.82118026 229.58783145 310.2654478 228.44921875 308.70703125 C220.13101898 297.35236781 211.79655246 286.00971499 203.32861328 274.76611328 C199.71621862 269.96419065 196.11493405 265.15390591 192.51025391 260.34619141 C188.52250705 255.02773171 188.52250705 255.02773171 184.52734375 249.71484375 C182.78008225 247.3927822 181.03810113 245.06693329 179.30029297 242.73779297 C178.29660562 241.39640233 177.28981913 240.05733025 176.28173828 238.71923828 C174.34829764 236.150744 172.42368903 233.5758034 170.5 231 C169.87536865 230.17363037 169.2507373 229.34726074 168.60717773 228.49584961 C168.02524658 227.71346924 167.44331543 226.93108887 166.84375 226.125 C166.31974609 225.42632812 165.79574219 224.72765625 165.25585938 224.0078125 C163.98862357 221.98181186 163.4320904 220.33590687 163 218 C154.96568115 225.94761757 147.46128187 234.29736688 140.37109375 243.09375 C137.67366629 246.39998728 134.9085463 249.64127851 132.125 252.875 C131.10023228 254.06638205 130.07549273 255.25778833 129.05078125 256.44921875 C128.29015381 257.33359619 128.29015381 257.33359619 127.51416016 258.23583984 C125.10350653 261.04451174 122.70529071 263.86360241 120.3125 266.6875 C119.85762207 267.22415283 119.40274414 267.76080566 118.93408203 268.3137207 C116.07764133 271.69471904 113.27892242 275.11722851 110.5 278.5625 C106.83718601 283.07057876 102.97432761 287.3364808 99.02001953 291.58569336 C95.46077766 295.43414705 92.19003677 299.44497343 88.9609375 303.5703125 C86.8918821 306.13396281 84.72080947 308.566963 82.5 311 C78.90336711 314.94588003 75.55158873 319.0173873 72.25 323.2109375 C68.96732697 327.28008427 65.5482522 331.228671 62.1237793 335.17871094 C61.63304932 335.7462207 61.14231934 336.31373047 60.63671875 336.8984375 C60.20061279 337.40036621 59.76450684 337.90229492 59.31518555 338.41943359 C57.92173819 340.02333284 57.92173819 340.02333284 56.69726562 342.07040405 C55 344 55 344 52.93086243 344.48101807 C52.1381041 344.47213562 51.34534576 344.46325317 50.52856445 344.45410156 C49.62785721 344.45379944 48.72714996 344.45349731 47.79914856 344.45318604 C46.83031235 344.43254089 45.86147614 344.41189575 44.86328125 344.390625 C43.86870407 344.38496521 42.87412689 344.37930542 41.84941101 344.37347412 C38.66995289 344.3510672 35.491618 344.30086205 32.3125 344.25 C30.15821939 344.22994062 28.00392113 344.21168887 25.84960938 344.1953125 C20.56602242 344.15118852 15.28309145 344.08423379 10 344 C10.94076365 342.73564864 11.88293538 341.47234493 12.82568359 340.20947266 C13.35020111 339.50585602 13.87471863 338.80223938 14.41513062 338.07730103 C16.70529823 335.07555995 19.14720479 332.22217684 21.625 329.375 C22.67843876 328.15499398 23.7318226 326.93494053 24.78515625 325.71484375 C25.58397217 324.79227783 25.58397217 324.79227783 26.39892578 323.85107422 C28.96228557 320.8874582 31.51275304 317.9128282 34.0625 314.9375 C34.55741943 314.36008057 35.05233887 313.78266113 35.56225586 313.18774414 C42.32565312 305.29139763 49.07869026 297.390442 55.625 289.3125 C59.19698748 284.92060792 62.93390866 280.71861502 66.74609375 276.53515625 C69.88761023 273.00163079 72.84259998 269.32708183 75.81640625 265.65234375 C78.44828821 262.45547819 81.20279324 259.38560989 83.97265625 256.30859375 C86.19531955 253.77758409 88.31856636 251.18087034 90.4375 248.5625 C93.36775637 244.94868468 96.36636006 241.43882922 99.5 238 C103.34558741 233.77583145 106.96730971 229.41046927 110.5625 224.97265625 C113.26891156 221.67204856 116.03044435 218.42433631 118.8125 215.1875 C119.31160889 214.60669678 119.81071777 214.02589355 120.32495117 213.42749023 C122.4393504 210.96974144 124.55630922 208.51421031 126.67431641 206.05957031 C128.3258278 204.14498209 129.97543375 202.22876409 131.625 200.3125 C132.13393799 199.72428467 132.64287598 199.13606934 133.16723633 198.5300293 C135.27013189 196.08637517 137.20898334 193.68652499 139 191 C138.64721012 187.97949279 137.53042907 186.05276372 135.69921875 183.671875 C135.22307129 183.04563232 134.74692383 182.41938965 134.25634766 181.77416992 C133.73862793 181.10619385 133.2209082 180.43821777 132.6875 179.75 C131.58450002 178.30348865 130.48163916 176.85687121 129.37890625 175.41015625 C128.81445801 174.6742627 128.25000977 173.93836914 127.66845703 173.18017578 C125.13196897 169.86574231 122.62761417 166.52754193 120.125 163.1875 C119.63314209 162.53257568 119.14128418 161.87765137 118.63452148 161.20288086 C114.80565657 156.09752229 111.02517586 150.95762237 107.25 145.8125 C102.23835085 138.98571202 97.14651538 132.22563021 92 125.5 C83.95879906 114.98851896 76.10939729 104.34369116 68.29101562 93.66601562 C60.8592088 83.52248909 53.32596657 73.46822068 45.68017578 63.48486328 C42.03529524 58.71275492 38.45276607 53.91278443 35 49 C30.11654246 42.06864092 24.97126603 35.34752806 19.79492188 28.6328125 C15.90461877 23.56961205 12.16935646 18.43134013 8.53344727 13.18261719 C6.25720676 9.94275249 3.78057598 6.88378583 1.28515625 3.8125 C0 2 0 2 0 0 Z " fill="#FBFBFB" transform="translate(182,196)"/>
<path d="M0 0 C4.87436991 -0.22329729 9.74573961 -0.38613882 14.62402344 -0.49438477 C16.28112654 -0.53951672 17.93787369 -0.60084462 19.59375 -0.67895508 C33.33432651 -1.31065826 33.33432651 -1.31065826 37.24511719 1.76660156 C38.78441492 4.10717757 39.88083683 6.43565215 41 9 C41.93732045 10.34015851 42.91678256 11.65190412 43.9375 12.9296875 C44.43241943 13.5695459 44.92733887 14.2094043 45.43725586 14.86865234 C45.95296143 15.53074707 46.46866699 16.1928418 47 16.875 C51.71810944 22.98993161 56.36439215 29.15084872 60.9375 35.375 C61.51532227 36.16132813 62.09314453 36.94765625 62.68847656 37.7578125 C64.46009365 40.17106351 66.2302272 42.58539621 68 45 C77.47887416 57.9611652 77.47887416 57.9611652 87.1875 70.75 C92.0738035 77.0584959 96.78587021 83.48433002 101.48876953 89.9296875 C109.22652258 100.53003416 117.02558574 111.07612989 125 121.5 C132.45511689 131.24562524 139.7504255 141.10094959 147 151 C154.27776593 160.93286642 161.59477181 170.82446207 169.10351562 180.58422852 C173.76273674 186.65462887 178.30614862 192.80629194 182.83325195 198.97558594 C186.58769954 204.09029515 190.37179802 209.18084272 194.1875 214.25 C198.45679822 219.92344169 202.67403308 225.6321413 206.86279297 231.36523438 C210.62934448 236.51280995 214.45369026 241.61532247 218.28881836 246.71191406 C224.10445788 254.4510361 229.83432035 262.25331282 235.56469727 270.05566406 C236.57951548 271.43038974 237.62203207 272.78487005 238.68334961 274.12402344 C240 276 240 276 240 278 C235.12563009 278.22329729 230.25426039 278.38613882 225.37597656 278.49438477 C223.71887346 278.53951672 222.06212631 278.60084462 220.40625 278.67895508 C206.69587561 279.30926977 206.69587561 279.30926977 202.81420898 276.3125 C201.26909609 273.95388243 200.16378943 271.56604065 199 269 C197.80999933 267.32020436 196.57437755 265.67202094 195.30078125 264.0546875 C194.65455811 263.21309082 194.00833496 262.37149414 193.3425293 261.50439453 C192.67261963 260.63669434 192.00270996 259.76899414 191.3125 258.875 C185.20451405 250.91134376 179.19103794 242.89173774 173.29003906 234.77392578 C164.81134854 223.11492401 156.19659238 211.56203949 147.52783203 200.04394531 C141.72502793 192.33143121 135.95967869 184.59426541 130.25 176.8125 C124.44365995 168.90193062 118.51720335 161.08828566 112.55541992 153.29443359 C108.55236246 148.05562192 104.61131495 142.78628608 100.76171875 137.43359375 C98.83003403 134.76521331 96.8567019 132.13144022 94.875 129.5 C90.88077208 124.19279058 86.93559116 118.85081172 83 113.5 C78.50356289 107.38741424 73.98186713 101.29673908 69.41796875 95.234375 C65.59146063 90.13236417 61.82370016 84.9864781 58.046875 79.84765625 C54.39206668 74.87744994 50.70922539 69.92970588 47 65 C44.77843736 62.03791648 42.55690981 59.07580743 40.3359375 56.11328125 C38.86366778 54.15107562 37.38991513 52.18998095 35.9140625 50.23046875 C30.76333249 43.38516772 25.67471842 36.49617947 20.60620117 29.58984375 C17.35675478 25.17014065 14.08062414 20.77314741 10.765625 16.40234375 C10.0742041 15.48904297 9.3827832 14.57574219 8.67041016 13.63476562 C7.32519409 11.86084022 5.97601557 10.08991146 4.62255859 8.32226562 C3.71497803 7.1244043 3.71497803 7.1244043 2.7890625 5.90234375 C1.98009521 4.84261353 1.98009521 4.84261353 1.15478516 3.76147461 C0 2 0 2 0 0 Z " fill="#040404" transform="translate(248,229)"/>
<path d="M0 0 C1.32 0.33 2.64 0.66 4 1 C3.3503125 1.8353125 3.3503125 1.8353125 2.6875 2.6875 C0.93439793 5.00605361 0.93439793 5.00605361 -0.5625 7.6875 C-2 10 -2 10 -4 11 C-4.33 11.99 -4.66 12.98 -5 14 C-6.32 13.34 -7.64 12.68 -9 12 C-7.55575365 8.76138697 -5.74227753 6.38030837 -3.375 3.75 C-2.74335938 3.04359375 -2.11171875 2.3371875 -1.4609375 1.609375 C-0.97882813 1.07828125 -0.49671875 0.5471875 0 0 Z " fill="#EEEEEE" transform="translate(296,417)"/>
<path d="M0 0 C0.66 0.99 1.32 1.98 2 3 C1.01 3.66 0.02 4.32 -1 5 C-1.6731208 6.33008669 -2.33939157 7.66365471 -3 9 C-4.5859375 10.6328125 -4.5859375 10.6328125 -6.375 12.125 C-6.96023437 12.62257813 -7.54546875 13.12015625 -8.1484375 13.6328125 C-10.02200005 15.01624476 -11.88982538 16.02392804 -14 17 C-13.175 16.05125 -12.35 15.1025 -11.5 14.125 C-7.54358862 9.51549679 -3.77324563 4.75965248 0 0 Z " fill="#DEDEDE" transform="translate(214,513)"/>
<path d="M0 0 C4.62222222 4.26666667 4.62222222 4.26666667 6.0625 7.0625 C6 9 6 9 4.0625 11.25 C3.381875 11.8275 2.70125 12.405 2 13 C2 9 2 9 3 7 C2.34 6.67 1.68 6.34 1 6 C1 5.34 1 4.68 1 4 C0.01 3.67 -0.98 3.34 -2 3 C-1.34 2.67 -0.68 2.34 0 2 C0 1.34 0 0.68 0 0 Z " fill="#161616" transform="translate(316,378)"/>
<path d="M0 0 C3.28788824 3.11016455 5.83735988 6.01618925 8 10 C6.02 10 4.04 10 2 10 C0.03266267 6.4342011 0 4.06058324 0 0 Z " fill="#141414" transform="translate(211,237)"/>
<path d="M0 0 C0.33 0.66 0.66 1.32 1 2 C-0.3125 4.625 -0.3125 4.625 -2 7 C-2.66 7 -3.32 7 -4 7 C-4.33 8.32 -4.66 9.64 -5 11 C-6.32 11.33 -7.64 11.66 -9 12 C-7.55575365 8.76138697 -5.74227753 6.38030837 -3.375 3.75 C-2.74335938 3.04359375 -2.11171875 2.3371875 -1.4609375 1.609375 C-0.97882813 1.07828125 -0.49671875 0.5471875 0 0 Z " fill="#E1E1E1" transform="translate(478,203)"/>
<path d="M0 0 C0.99 0.33 1.98 0.66 3 1 C2.360625 1.4125 1.72125 1.825 1.0625 2.25 C-1.16513187 3.77019663 -1.16513187 3.77019663 -1.375 5.9375 C-2.3895351 9.28546583 -5.1141267 10.28075633 -8 12 C-8.66 11.67 -9.32 11.34 -10 11 C-6.7 7.37 -3.4 3.74 0 0 Z " fill="#1A1A1A" transform="translate(441,299)"/>
<path d="M0 0 C2.96404505 2.80804268 5.44499019 5.18315774 7 9 C4.625 8.75 4.625 8.75 2 8 C-0.09862498 5.10189884 0 3.71621139 0 0 Z " fill="#EEEEEE" transform="translate(425,469)"/>
<path d="M0 0 C0.99 0.66 1.98 1.32 3 2 C2.835 2.598125 2.67 3.19625 2.5 3.8125 C1.8885876 6.11344336 1.8885876 6.11344336 2 9 C0.35 7.35 -1.3 5.7 -3 4 C-2.67 3.01 -2.34 2.02 -2 1 C-1.34 0.67 -0.68 0.34 0 0 Z " fill="#EEEEEE" transform="translate(243,272)"/>
<path d="M0 0 C0.99 0.99 1.98 1.98 3 3 C1.515 5.475 1.515 5.475 0 8 C-2.52588702 5.63707344 -3.88820837 4.33537489 -5 1 C-3.68 1.33 -2.36 1.66 -1 2 C-0.67 1.34 -0.34 0.68 0 0 Z " fill="#F1F1F1" transform="translate(221,241)"/>
<path d="M0 0 C1.65 0.33 3.3 0.66 5 1 C3.68 2.65 2.36 4.3 1 6 C-0.32 5.67 -1.64 5.34 -3 5 C-2.67 4.01 -2.34 3.02 -2 2 C-1.34 2 -0.68 2 0 2 C0 1.34 0 0.68 0 0 Z " fill="#0F0F0F" transform="translate(413,273)"/>
<path d="M0 0 C0.66 1.32 1.32 2.64 2 4 C1.67 4.99 1.34 5.98 1 7 C-1.31 7.33 -3.62 7.66 -6 8 C-4.02 5.36 -2.04 2.72 0 0 Z " fill="#E8E8E8" transform="translate(426,264)"/>
<path d="M0 0 C0.66 0.66 1.32 1.32 2 2 C-0.48908945 6.84717418 -3.24222524 8.62111262 -8 11 C-6.63629701 8.00779732 -5.05091917 5.70973471 -2.875 3.25 C-2.33617187 2.63640625 -1.79734375 2.0228125 -1.2421875 1.390625 C-0.62730469 0.70226562 -0.62730469 0.70226562 0 0 Z " fill="#1E1E1E" transform="translate(507,221)"/>
<path d="M0 0 C1.65 0 3.3 0 5 0 C5.99 2.31 6.98 4.62 8 7 C7.34 7.66 6.68 8.32 6 9 C4.02 6.03 2.04 3.06 0 0 Z " fill="#1A1A1A" transform="translate(516,488)"/>
<path d="M0 0 C4.875 2.625 4.875 2.625 6 6 C2.86650268 7.04449911 2.01031744 6.93423645 -1 6 C-1 3 -1 3 0 0 Z " fill="#F3F3F3" transform="translate(514,488)"/>
<path d="M0 0 C2.96404505 2.80804268 5.44499019 5.18315774 7 9 C6.01 9 5.02 9 4 9 C1 5.66666667 1 5.66666667 1 3 C0.01 3.33 -0.98 3.66 -2 4 C-1.34 2.68 -0.68 1.36 0 0 Z " fill="#111111" transform="translate(323,285)"/>
<path d="M0 0 C0.66 0.33 1.32 0.66 2 1 C0.25 4.875 0.25 4.875 -2 6 C-3.35308313 7.31328657 -4.68870078 8.64499081 -6 10 C-6.66 9.67 -7.32 9.34 -8 9 C-5.36 6.03 -2.72 3.06 0 0 Z " fill="#171717" transform="translate(498,232)"/>
<path d="M0 0 C0.66 0 1.32 0 2 0 C1.67 0.99 1.34 1.98 1 3 C0.34 3 -0.32 3 -1 3 C-0.67 2.01 -0.34 1.02 0 0 Z M-2 3 C-1.34 3.66 -0.68 4.32 0 5 C-2.31 6.65 -4.62 8.3 -7 10 C-5.70700306 7.11562221 -4.34058637 5.12780579 -2 3 Z M-8 10 C-7.67 10.66 -7.34 11.32 -7 12 C-7.66 12.66 -8.32 13.32 -9 14 C-9 11 -9 11 -8 10 Z " fill="#1B1B1B" transform="translate(461,275)"/>
<path d="M0 0 C0.66 0 1.32 0 2 0 C1.67 0.99 1.34 1.98 1 3 C0.34 3 -0.32 3 -1 3 C-1.33 4.65 -1.66 6.3 -2 8 C-3.65 8.33 -5.3 8.66 -7 9 C-6.02180976 7.68677212 -5.0424189 6.37443848 -4.0625 5.0625 C-3.51722656 4.33160156 -2.97195313 3.60070312 -2.41015625 2.84765625 C-1 1 -1 1 0 0 Z " fill="#161616" transform="translate(480,253)"/>
<path d="M0 0 C0.99 0.66 1.98 1.32 3 2 C2 5 2 5 -0.375 6.1875 C-3 7 -3 7 -6 7 C-4.02 4.69 -2.04 2.38 0 0 Z " fill="#1F1F1F" transform="translate(489,242)"/>
<path d="M0 0 C0.33 1.32 0.66 2.64 1 4 C-1.64 6.31 -4.28 8.62 -7 11 C-7 7.22089522 -6.00296038 6.53893899 -3.5 3.8125 C-2.8503125 3.09707031 -2.200625 2.38164062 -1.53125 1.64453125 C-1.0259375 1.10183594 -0.520625 0.55914062 0 0 Z " fill="#E0E0E0" transform="translate(460,224)"/>
<path d="M0 0 C0.99 0.33 1.98 0.66 3 1 C0.525 4.465 0.525 4.465 -2 8 C-2.66 7.34 -3.32 6.68 -4 6 C-2.68 4.02 -1.36 2.04 0 0 Z " fill="#111111" transform="translate(446,236)"/>
<path d="M0 0 C0.66 0.99 1.32 1.98 2 3 C0.35 4.98 -1.3 6.96 -3 9 C-3.99 8.34 -4.98 7.68 -6 7 C-5.34 7 -4.68 7 -4 7 C-3.71125 6.21625 -3.4225 5.4325 -3.125 4.625 C-2 2 -2 2 0 0 Z " fill="#151515" transform="translate(454,227)"/>
<path d="M0 0 C0.99 0 1.98 0 3 0 C4.32 2.31 5.64 4.62 7 7 C5.02 6.34 3.04 5.68 1 5 C0.67 3.35 0.34 1.7 0 0 Z " fill="#EAEAEA" transform="translate(531,511)"/>
<path d="M0 0 C1.65 1.65 3.3 3.3 5 5 C4.34 5.66 3.68 6.32 3 7 C2.01 7 1.02 7 0 7 C-1.04449911 3.86650268 -0.93423645 3.01031744 0 0 Z " fill="#E4E4E4" transform="translate(266,255)"/>
<path d="M0 0 C1.0625 1.8125 1.0625 1.8125 2 4 C1.67 4.99 1.34 5.98 1 7 C-0.32 6.34 -1.64 5.68 -3 5 C-1.125 1.125 -1.125 1.125 0 0 Z " fill="#171717" transform="translate(314,448)"/>
<path d="M0 0 C2.52588702 2.36292656 3.88820837 3.66462511 5 7 C3.68 7.33 2.36 7.66 1 8 C-0.42944945 5.64561267 -1.08661261 4.51967567 -0.625 1.75 C-0.41875 1.1725 -0.2125 0.595 0 0 Z " fill="#161616" transform="translate(192,211)"/>
<path d="M0 0 C1.37562854 1.28965176 2.70766393 2.62689293 4 4 C4 4.66 4 5.32 4 6 C2.02 6 0.04 6 -2 6 C-1.34 4.02 -0.68 2.04 0 0 Z " fill="#0E0E0E" transform="translate(483,500)"/>
<path d="M0 0 C1 3 1 3 0 6 C-2.60242414 7.64820195 -3.86248779 8 -7 8 C-4.69 5.36 -2.38 2.72 0 0 Z " fill="#D4D4D4" transform="translate(276,440)"/>
<path d="M0 0 C0.33 1.32 0.66 2.64 1 4 C-0.9375 6.25 -0.9375 6.25 -3 8 C-3.99 7.67 -4.98 7.34 -6 7 C-4.02 4.69 -2.04 2.38 0 0 Z " fill="#1B1B1B" transform="translate(450,288)"/>
<path d="M0 0 C-0.99 1.32 -1.98 2.64 -3 4 C-4.32 3.67 -5.64 3.34 -7 3 C-7 2.34 -7 1.68 -7 1 C-3.375 -1.125 -3.375 -1.125 0 0 Z " fill="#F1F1F1" transform="translate(521,205)"/>
<path d="M0 0 C4.75 -0.125 4.75 -0.125 7 1 C6.67 1.99 6.34 2.98 6 4 C5.01 4.33 4.02 4.66 3 5 C2.01 3.35 1.02 1.7 0 0 Z " fill="#ECECEC" transform="translate(376,457)"/>
<path d="M0 0 C0.66 0 1.32 0 2 0 C1.43628586 3.26954202 0.50037734 4.82575883 -2 7 C-2.33 6.01 -2.66 5.02 -3 4 C-1.6875 1.8125 -1.6875 1.8125 0 0 Z " fill="#EEEEEE" transform="translate(334,420)"/>
<path d="M0 0 C0.33 0.66 0.66 1.32 1 2 C0.67 2.66 0.34 3.32 0 4 C0.66 4 1.32 4 2 4 C1.67 4.99 1.34 5.98 1 7 C-0.32 6.34 -1.64 5.68 -3 5 C-1.125 1.125 -1.125 1.125 0 0 Z " fill="#E7E7E7" transform="translate(290,424)"/>
<path d="M0 0 C1.65 0.99 3.3 1.98 5 3 C4.34 3.66 3.68 4.32 3 5 C0.875 4.625 0.875 4.625 -1 4 C-0.67 2.68 -0.34 1.36 0 0 Z " fill="#0C0C0C" transform="translate(349,322)"/>
<path d="M0 0 C0.66 0.33 1.32 0.66 2 1 C1 4 1 4 -2.0625 5.6875 C-3.031875 6.120625 -4.00125 6.55375 -5 7 C-3.70700306 4.11562221 -2.34058637 2.12780579 0 0 Z " fill="#1A1A1A" transform="translate(339,419)"/>
<path d="M0 0 C1.32 0.66 2.64 1.32 4 2 C3.01 2.495 3.01 2.495 2 3 C1.67 3.66 1.34 4.32 1 5 C0.67 4.67 0.34 4.34 0 4 C-0.66 4.66 -1.32 5.32 -2 6 C-2 4.68 -2 3.36 -2 2 C-1.34 2 -0.68 2 0 2 C0 1.34 0 0.68 0 0 Z " fill="#E7E7E7" transform="translate(276,270)"/>
</svg>
